<svg id="Group_175743" data-name="Group 175743" xmlns="http://www.w3.org/2000/svg" xmlns:xlink="http://www.w3.org/1999/xlink" width="300" height="106" viewBox="0 0 300 106">
  <defs>
    <clipPath id="clip-path">
      <rect id="Rectangle_162782" data-name="Rectangle 162782" width="300" height="106" fill="none"/>
    </clipPath>
  </defs>
  <g id="Group_175742" data-name="Group 175742" clip-path="url(#clip-path)">
    <path id="Path_103872" data-name="Path 103872" d="M101.349,68.793a2.236,2.236,0,1,0-2.238-2.237,2.237,2.237,0,0,0,2.238,2.237" transform="translate(-21.135 -13.76)" fill="#b5a55d"/>
    <path id="Path_103873" data-name="Path 103873" d="M100.477,76.531A2.236,2.236,0,1,0,98.239,74.3a2.236,2.236,0,0,0,2.238,2.236" transform="translate(-20.949 -15.415)" fill="#b5a55d"/>
    <path id="Path_103874" data-name="Path 103874" d="M97.911,83.868a2.217,2.217,0,1,0-2.218-2.217,2.217,2.217,0,0,0,2.218,2.217" transform="translate(-20.406 -16.993)" fill="#b5a55d"/>
    <path id="Path_103875" data-name="Path 103875" d="M93.762,90.475a2.236,2.236,0,1,0-2.238-2.236,2.236,2.236,0,0,0,2.238,2.236" transform="translate(-19.517 -18.399)" fill="#b5a55d"/>
    <path id="Path_103876" data-name="Path 103876" d="M88.256,95.982a2.236,2.236,0,1,0-2.238-2.236,2.236,2.236,0,0,0,2.238,2.236" transform="translate(-18.343 -19.577)" fill="#b5a55d"/>
    <path id="Path_103877" data-name="Path 103877" d="M81.667,100.111a2.217,2.217,0,1,0-2.219-2.217,2.217,2.217,0,0,0,2.219,2.217" transform="translate(-16.942 -20.468)" fill="#b5a55d"/>
    <path id="Path_103878" data-name="Path 103878" d="M74.312,102.7a2.236,2.236,0,1,0-2.238-2.236,2.236,2.236,0,0,0,2.238,2.236" transform="translate(-15.369 -21.013)" fill="#b5a55d"/>
    <path id="Path_103879" data-name="Path 103879" d="M66.573,103.569a2.236,2.236,0,1,0-2.238-2.236,2.236,2.236,0,0,0,2.238,2.236" transform="translate(-13.719 -21.2)" fill="#b5a55d"/>
    <path id="Path_103880" data-name="Path 103880" d="M58.84,102.684a2.217,2.217,0,1,0-2.219-2.217,2.218,2.218,0,0,0,2.219,2.217" transform="translate(-12.074 -21.019)" fill="#b5a55d"/>
    <path id="Path_103881" data-name="Path 103881" d="M51.489,100.111a2.217,2.217,0,1,0-2.218-2.217,2.217,2.217,0,0,0,2.218,2.217" transform="translate(-10.507 -20.468)" fill="#b5a55d"/>
    <path id="Path_103882" data-name="Path 103882" d="M44.9,95.968a2.218,2.218,0,1,0-2.219-2.217A2.217,2.217,0,0,0,44.9,95.968" transform="translate(-9.101 -19.582)" fill="#b5a55d"/>
    <path id="Path_103883" data-name="Path 103883" d="M39.4,90.433a2.179,2.179,0,1,0-2.182-2.18,2.181,2.181,0,0,0,2.182,2.18" transform="translate(-7.936 -18.414)" fill="#b5a55d"/>
    <path id="Path_103884" data-name="Path 103884" d="M35.251,83.853a2.2,2.2,0,1,0-2.2-2.2,2.2,2.2,0,0,0,2.2,2.2" transform="translate(-7.048 -16.998)" fill="#b5a55d"/>
    <path id="Path_103885" data-name="Path 103885" d="M32.694,76.462a2.142,2.142,0,1,0-2.143-2.141,2.144,2.144,0,0,0,2.143,2.141" transform="translate(-6.515 -15.441)" fill="#b5a55d"/>
    <path id="Path_103886" data-name="Path 103886" d="M31.822,68.723a2.142,2.142,0,1,0-2.145-2.141,2.142,2.142,0,0,0,2.145,2.141" transform="translate(-6.328 -13.786)" fill="#b5a55d"/>
    <path id="Path_103887" data-name="Path 103887" d="M32.7,60.971a2.122,2.122,0,1,0-2.125-2.122A2.122,2.122,0,0,0,32.7,60.971" transform="translate(-6.52 -12.136)" fill="#b5a55d"/>
    <path id="Path_103888" data-name="Path 103888" d="M35.251,53.675a2.2,2.2,0,1,0-2.2-2.2,2.2,2.2,0,0,0,2.2,2.2" transform="translate(-7.048 -10.542)" fill="#b5a55d"/>
    <path id="Path_103889" data-name="Path 103889" d="M39.4,47.054a2.16,2.16,0,1,0-2.161-2.161A2.163,2.163,0,0,0,39.4,47.054" transform="translate(-7.942 -9.142)" fill="#b5a55d"/>
    <path id="Path_103890" data-name="Path 103890" d="M44.911,41.547a2.161,2.161,0,1,0-2.162-2.161,2.161,2.161,0,0,0,2.162,2.161" transform="translate(-9.116 -7.964)" fill="#b5a55d"/>
    <path id="Path_103891" data-name="Path 103891" d="M51.494,37.431a2.2,2.2,0,1,0-2.2-2.2,2.2,2.2,0,0,0,2.2,2.2" transform="translate(-10.511 -7.067)" fill="#b5a55d"/>
    <path id="Path_103892" data-name="Path 103892" d="M58.865,34.8a2.122,2.122,0,1,0-2.124-2.121A2.122,2.122,0,0,0,58.865,34.8" transform="translate(-12.1 -6.538)" fill="#b5a55d"/>
    <path id="Path_103893" data-name="Path 103893" d="M66.6,33.946a2.142,2.142,0,1,0-2.143-2.141A2.144,2.144,0,0,0,66.6,33.946" transform="translate(-13.745 -6.346)" fill="#b5a55d"/>
    <path id="Path_103894" data-name="Path 103894" d="M74.338,34.818a2.142,2.142,0,1,0-2.145-2.141,2.142,2.142,0,0,0,2.145,2.141" transform="translate(-15.395 -6.532)" fill="#b5a55d"/>
    <path id="Path_103895" data-name="Path 103895" d="M81.672,37.431a2.2,2.2,0,1,0-2.2-2.2,2.2,2.2,0,0,0,2.2,2.2" transform="translate(-16.947 -7.067)" fill="#b5a55d"/>
    <path id="Path_103896" data-name="Path 103896" d="M88.272,41.561a2.179,2.179,0,1,0-2.182-2.18,2.182,2.182,0,0,0,2.182,2.18" transform="translate(-18.358 -7.959)" fill="#b5a55d"/>
    <path id="Path_103897" data-name="Path 103897" d="M93.768,47.095a2.217,2.217,0,1,0-2.218-2.217,2.216,2.216,0,0,0,2.218,2.217" transform="translate(-19.522 -9.126)" fill="#b5a55d"/>
    <path id="Path_103898" data-name="Path 103898" d="M97.911,53.689a2.217,2.217,0,1,0-2.218-2.217,2.217,2.217,0,0,0,2.218,2.217" transform="translate(-20.406 -10.537)" fill="#b5a55d"/>
    <path id="Path_103899" data-name="Path 103899" d="M100.483,61.039a2.217,2.217,0,1,0-2.218-2.217,2.217,2.217,0,0,0,2.218,2.217" transform="translate(-20.954 -12.11)" fill="#b5a55d"/>
    <path id="Path_103900" data-name="Path 103900" d="M103.858,42.417a2,2,0,1,0,2,2,2,2,0,0,0-2-2" transform="translate(-21.72 -9.074)" fill="#b5a55d"/>
    <path id="Path_103901" data-name="Path 103901" d="M99.239,36.115a2,2,0,1,0,2,2,2,2,0,0,0-2-2" transform="translate(-20.735 -7.726)" fill="#b5a55d"/>
    <path id="Path_103902" data-name="Path 103902" d="M93.646,30.768a2,2,0,1,0,2,2,2,2,0,0,0-2-2" transform="translate(-19.542 -6.582)" fill="#b5a55d"/>
    <path id="Path_103903" data-name="Path 103903" d="M87.1,26.45a2,2,0,1,0,2,2,2,2,0,0,0-2-2" transform="translate(-18.146 -5.658)" fill="#b5a55d"/>
    <path id="Path_103904" data-name="Path 103904" d="M79.938,23.409a2,2,0,1,0,2,2,2,2,0,0,0-2-2" transform="translate(-16.619 -5.008)" fill="#b5a55d"/>
    <path id="Path_103905" data-name="Path 103905" d="M72.345,21.7a2,2,0,1,0,2,2,2,2,0,0,0-2-2" transform="translate(-15 -4.643)" fill="#b5a55d"/>
    <path id="Path_103906" data-name="Path 103906" d="M64.638,21.363a2,2,0,1,0,2,2,2,2,0,0,0-2-2" transform="translate(-13.357 -4.57)" fill="#b5a55d"/>
    <path id="Path_103907" data-name="Path 103907" d="M56.877,22.419a2,2,0,1,0,2,2,2,2,0,0,0-2-2" transform="translate(-11.702 -4.796)" fill="#b5a55d"/>
    <path id="Path_103908" data-name="Path 103908" d="M49.451,24.85a2,2,0,1,0,2,2,2,2,0,0,0-2-2" transform="translate(-10.118 -5.316)" fill="#b5a55d"/>
    <path id="Path_103909" data-name="Path 103909" d="M42.681,28.522a2,2,0,1,0,2,2,2,2,0,0,0-2-2" transform="translate(-8.675 -6.102)" fill="#b5a55d"/>
    <path id="Path_103910" data-name="Path 103910" d="M36.658,33.333a2,2,0,1,0,2,2,2,2,0,0,0-2-2" transform="translate(-7.39 -7.131)" fill="#b5a55d"/>
    <path id="Path_103911" data-name="Path 103911" d="M31.512,39.222a2,2,0,1,0,2,2,2,2,0,0,0-2-2" transform="translate(-6.293 -8.391)" fill="#b5a55d"/>
    <path id="Path_103912" data-name="Path 103912" d="M27.545,45.813a2,2,0,1,0,2,2,2,2,0,0,0-2-2" transform="translate(-5.447 -9.801)" fill="#b5a55d"/>
    <path id="Path_103913" data-name="Path 103913" d="M24.808,53.118a2,2,0,1,0,2,2,2,2,0,0,0-2-2" transform="translate(-4.863 -11.364)" fill="#b5a55d"/>
    <path id="Path_103914" data-name="Path 103914" d="M23.42,60.726a2,2,0,1,0,2,2,2,2,0,0,0-2-2" transform="translate(-4.567 -12.991)" fill="#b5a55d"/>
    <path id="Path_103915" data-name="Path 103915" d="M23.4,68.528a2,2,0,1,0,2,2,2,2,0,0,0-2-2" transform="translate(-4.564 -14.66)" fill="#b5a55d"/>
    <path id="Path_103916" data-name="Path 103916" d="M24.8,76.191a2,2,0,1,0,2,2,2,2,0,0,0-2-2" transform="translate(-4.862 -16.3)" fill="#b5a55d"/>
    <path id="Path_103917" data-name="Path 103917" d="M27.519,83.447a2,2,0,1,0,2,2,2,2,0,0,0-2-2" transform="translate(-5.442 -17.852)" fill="#b5a55d"/>
    <path id="Path_103918" data-name="Path 103918" d="M31.523,90.163a2,2,0,1,0,2,2,2,2,0,0,0-2-2" transform="translate(-6.295 -19.289)" fill="#b5a55d"/>
    <path id="Path_103919" data-name="Path 103919" d="M36.6,95.967a2,2,0,1,0,2,2,2,2,0,0,0-2-2" transform="translate(-7.378 -20.53)" fill="#b5a55d"/>
    <path id="Path_103920" data-name="Path 103920" d="M42.717,100.878a2,2,0,1,0,2,2,2,2,0,0,0-2-2" transform="translate(-8.682 -21.581)" fill="#b5a55d"/>
    <path id="Path_103921" data-name="Path 103921" d="M49.511,104.548a2,2,0,1,0,2,2,2,2,0,0,0-2-2" transform="translate(-10.131 -22.366)" fill="#b5a55d"/>
    <path id="Path_103922" data-name="Path 103922" d="M56.912,106.97a2,2,0,1,0,2,2,2,2,0,0,0-2-2" transform="translate(-11.709 -22.884)" fill="#b5a55d"/>
    <path id="Path_103923" data-name="Path 103923" d="M64.614,108.006a2,2,0,1,0,2,2,2,2,0,0,0-2-2" transform="translate(-13.352 -23.106)" fill="#b5a55d"/>
    <path id="Path_103924" data-name="Path 103924" d="M72.372,107.672a2,2,0,1,0,2,2,2,2,0,0,0-2-2" transform="translate(-15.006 -23.034)" fill="#b5a55d"/>
    <path id="Path_103925" data-name="Path 103925" d="M79.968,105.951a2,2,0,1,0,2,2,2,2,0,0,0-2-2" transform="translate(-16.626 -22.666)" fill="#b5a55d"/>
    <path id="Path_103926" data-name="Path 103926" d="M87.158,102.894a2,2,0,1,0,2,2,2,2,0,0,0-2-2" transform="translate(-18.159 -22.012)" fill="#b5a55d"/>
    <path id="Path_103927" data-name="Path 103927" d="M93.635,98.595a2,2,0,1,0,2,2,2,2,0,0,0-2-2" transform="translate(-19.54 -21.093)" fill="#b5a55d"/>
    <path id="Path_103928" data-name="Path 103928" d="M99.287,93.193a2,2,0,1,0,2,2,2,2,0,0,0-2-2" transform="translate(-20.746 -19.937)" fill="#b5a55d"/>
    <path id="Path_103929" data-name="Path 103929" d="M103.882,86.883a2,2,0,1,0,2,2,2,2,0,0,0-2-2" transform="translate(-21.725 -18.587)" fill="#b5a55d"/>
    <path id="Path_103930" data-name="Path 103930" d="M107.239,79.9a2,2,0,1,0,2,2,2,2,0,0,0-2-2" transform="translate(-22.441 -17.094)" fill="#b5a55d"/>
    <path id="Path_103931" data-name="Path 103931" d="M109.282,72.41a2,2,0,1,0,2,2,2,2,0,0,0-2-2" transform="translate(-22.877 -15.491)" fill="#b5a55d"/>
    <path id="Path_103932" data-name="Path 103932" d="M109.991,64.613a2,2,0,1,0,2,2,2,2,0,0,0-2-2" transform="translate(-23.028 -13.823)" fill="#b5a55d"/>
    <path id="Path_103933" data-name="Path 103933" d="M109.263,56.826a2,2,0,1,0,2,2,2,2,0,0,0-2-2" transform="translate(-22.873 -12.157)" fill="#b5a55d"/>
    <path id="Path_103934" data-name="Path 103934" d="M107.2,49.392a2,2,0,1,0,2,2,2,2,0,0,0-2-2" transform="translate(-22.434 -10.567)" fill="#b5a55d"/>
    <path id="Path_103935" data-name="Path 103935" d="M117.58,57.105a1.782,1.782,0,1,0,1.784,1.783,1.784,1.784,0,0,0-1.784-1.783" transform="translate(-24.693 -12.217)" fill="#b5a55d"/>
    <path id="Path_103936" data-name="Path 103936" d="M115.786,49.487a1.782,1.782,0,1,0,1.783,1.783,1.784,1.784,0,0,0-1.783-1.783" transform="translate(-24.31 -10.587)" fill="#b5a55d"/>
    <path id="Path_103937" data-name="Path 103937" d="M112.924,42.28a1.782,1.782,0,1,0,1.783,1.783,1.785,1.785,0,0,0-1.783-1.783" transform="translate(-23.7 -9.045)" fill="#b5a55d"/>
    <path id="Path_103938" data-name="Path 103938" d="M109.17,35.92a1.782,1.782,0,1,0,1.783,1.783,1.784,1.784,0,0,0-1.783-1.783" transform="translate(-22.9 -7.684)" fill="#b5a55d"/>
    <path id="Path_103939" data-name="Path 103939" d="M104.225,29.828a1.782,1.782,0,1,0,1.783,1.783,1.784,1.784,0,0,0-1.783-1.783" transform="translate(-21.845 -6.381)" fill="#b5a55d"/>
    <path id="Path_103940" data-name="Path 103940" d="M98.689,24.716a1.782,1.782,0,1,0,1.783,1.783,1.785,1.785,0,0,0-1.783-1.783" transform="translate(-20.664 -5.288)" fill="#b5a55d"/>
    <path id="Path_103941" data-name="Path 103941" d="M92.151,20.305a1.782,1.782,0,1,0,1.784,1.783,1.784,1.784,0,0,0-1.784-1.783" transform="translate(-19.27 -4.344)" fill="#b5a55d"/>
    <path id="Path_103942" data-name="Path 103942" d="M85.29,16.975a1.782,1.782,0,1,0,1.782,1.783,1.785,1.785,0,0,0-1.782-1.783" transform="translate(-17.807 -3.631)" fill="#b5a55d"/>
    <path id="Path_103943" data-name="Path 103943" d="M78.05,14.825a1.782,1.782,0,1,0,1.784,1.783,1.784,1.784,0,0,0-1.784-1.783" transform="translate(-16.263 -3.172)" fill="#b5a55d"/>
    <path id="Path_103944" data-name="Path 103944" d="M70.489,13.7a1.782,1.782,0,1,0,1.783,1.783A1.785,1.785,0,0,0,70.489,13.7" transform="translate(-14.651 -2.931)" fill="#b5a55d"/>
    <path id="Path_103945" data-name="Path 103945" d="M62.992,13.667a1.782,1.782,0,1,0,1.784,1.783,1.785,1.785,0,0,0-1.784-1.783" transform="translate(-13.052 -2.924)" fill="#b5a55d"/>
    <path id="Path_103946" data-name="Path 103946" d="M55.273,14.836a1.782,1.782,0,1,0,1.784,1.783,1.785,1.785,0,0,0-1.784-1.783" transform="translate(-11.406 -3.174)" fill="#b5a55d"/>
    <path id="Path_103947" data-name="Path 103947" d="M47.833,17.153a1.782,1.782,0,1,0,1.784,1.783,1.784,1.784,0,0,0-1.784-1.783" transform="translate(-9.82 -3.67)" fill="#b5a55d"/>
    <path id="Path_103948" data-name="Path 103948" d="M41.217,20.327A1.782,1.782,0,1,0,43,22.11a1.784,1.784,0,0,0-1.784-1.783" transform="translate(-8.409 -4.349)" fill="#b5a55d"/>
    <path id="Path_103949" data-name="Path 103949" d="M34.9,24.616A1.782,1.782,0,1,0,36.685,26.4,1.784,1.784,0,0,0,34.9,24.616" transform="translate(-7.062 -5.266)" fill="#b5a55d"/>
    <path id="Path_103950" data-name="Path 103950" d="M29.155,29.862a1.782,1.782,0,1,0,1.783,1.783,1.784,1.784,0,0,0-1.783-1.783" transform="translate(-5.837 -6.388)" fill="#b5a55d"/>
    <path id="Path_103951" data-name="Path 103951" d="M24.321,35.9A1.782,1.782,0,1,0,26.1,37.681,1.785,1.785,0,0,0,24.321,35.9" transform="translate(-4.806 -7.68)" fill="#b5a55d"/>
    <path id="Path_103952" data-name="Path 103952" d="M20.422,42.592a1.782,1.782,0,1,0,1.784,1.783,1.785,1.785,0,0,0-1.784-1.783" transform="translate(-3.974 -9.112)" fill="#b5a55d"/>
    <path id="Path_103953" data-name="Path 103953" d="M17.572,49.843a1.782,1.782,0,1,0,1.783,1.783,1.785,1.785,0,0,0-1.783-1.783" transform="translate(-3.367 -10.663)" fill="#b5a55d"/>
    <path id="Path_103954" data-name="Path 103954" d="M15.912,57.361A1.782,1.782,0,1,0,17.7,59.144a1.785,1.785,0,0,0-1.784-1.783" transform="translate(-3.013 -12.271)" fill="#b5a55d"/>
    <path id="Path_103955" data-name="Path 103955" d="M15.355,64.868a1.782,1.782,0,1,0,1.784,1.783,1.785,1.785,0,0,0-1.784-1.783" transform="translate(-2.894 -13.877)" fill="#b5a55d"/>
    <path id="Path_103956" data-name="Path 103956" d="M15.867,72.587a1.782,1.782,0,1,0,1.783,1.782,1.784,1.784,0,0,0-1.783-1.782" transform="translate(-3.003 -15.529)" fill="#b5a55d"/>
    <path id="Path_103957" data-name="Path 103957" d="M17.615,80.205A1.782,1.782,0,1,0,19.4,81.987a1.785,1.785,0,0,0-1.784-1.782" transform="translate(-3.376 -17.158)" fill="#b5a55d"/>
    <path id="Path_103958" data-name="Path 103958" d="M20.478,87.412a1.782,1.782,0,1,0,1.784,1.782,1.785,1.785,0,0,0-1.784-1.782" transform="translate(-3.986 -18.7)" fill="#b5a55d"/>
    <path id="Path_103959" data-name="Path 103959" d="M24.21,93.917A1.782,1.782,0,1,0,25.993,95.7a1.785,1.785,0,0,0-1.784-1.782" transform="translate(-4.782 -20.092)" fill="#b5a55d"/>
    <path id="Path_103960" data-name="Path 103960" d="M29.066,99.943a1.782,1.782,0,1,0,1.783,1.782,1.784,1.784,0,0,0-1.783-1.782" transform="translate(-5.818 -21.381)" fill="#b5a55d"/>
    <path id="Path_103961" data-name="Path 103961" d="M34.634,105.122a1.782,1.782,0,1,0,1.784,1.782,1.784,1.784,0,0,0-1.784-1.782" transform="translate(-7.005 -22.489)" fill="#b5a55d"/>
    <path id="Path_103962" data-name="Path 103962" d="M41.05,109.466a1.782,1.782,0,1,0,1.784,1.782,1.784,1.784,0,0,0-1.784-1.782" transform="translate(-8.373 -23.418)" fill="#b5a55d"/>
    <path id="Path_103963" data-name="Path 103963" d="M47.945,112.829a1.782,1.782,0,1,0,1.783,1.782,1.784,1.784,0,0,0-1.783-1.782" transform="translate(-9.843 -24.138)" fill="#b5a55d"/>
    <path id="Path_103964" data-name="Path 103964" d="M55.374,115.123a1.782,1.782,0,1,0,1.784,1.782,1.784,1.784,0,0,0-1.784-1.782" transform="translate(-11.428 -24.628)" fill="#b5a55d"/>
    <path id="Path_103965" data-name="Path 103965" d="M63.082,116.249a1.782,1.782,0,1,0,1.783,1.783,1.785,1.785,0,0,0-1.783-1.783" transform="translate(-13.071 -24.869)" fill="#b5a55d"/>
    <path id="Path_103966" data-name="Path 103966" d="M70.544,116.216A1.782,1.782,0,1,0,72.326,118a1.784,1.784,0,0,0-1.783-1.782" transform="translate(-14.663 -24.862)" fill="#b5a55d"/>
    <path id="Path_103967" data-name="Path 103967" d="M78.307,115.046a1.782,1.782,0,1,0,1.782,1.782,1.785,1.785,0,0,0-1.782-1.782" transform="translate(-16.318 -24.612)" fill="#b5a55d"/>
    <path id="Path_103968" data-name="Path 103968" d="M85.558,112.818A1.782,1.782,0,1,0,87.34,114.6a1.785,1.785,0,0,0-1.783-1.783" transform="translate(-17.864 -24.135)" fill="#b5a55d"/>
    <path id="Path_103969" data-name="Path 103969" d="M92.363,109.521a1.782,1.782,0,1,0,1.783,1.782,1.784,1.784,0,0,0-1.783-1.782" transform="translate(-19.316 -23.43)" fill="#b5a55d"/>
    <path id="Path_103970" data-name="Path 103970" d="M98.757,105.177a1.782,1.782,0,1,0,1.783,1.782,1.784,1.784,0,0,0-1.783-1.782" transform="translate(-20.679 -22.501)" fill="#b5a55d"/>
    <path id="Path_103971" data-name="Path 103971" d="M104.437,99.92a1.782,1.782,0,1,0,1.783,1.783,1.785,1.785,0,0,0-1.783-1.783" transform="translate(-21.89 -21.376)" fill="#b5a55d"/>
    <path id="Path_103972" data-name="Path 103972" d="M109.271,93.872a1.782,1.782,0,1,0,1.783,1.782,1.784,1.784,0,0,0-1.783-1.782" transform="translate(-22.921 -20.082)" fill="#b5a55d"/>
    <path id="Path_103973" data-name="Path 103973" d="M113.124,87.2a1.782,1.782,0,1,0,1.784,1.782,1.784,1.784,0,0,0-1.784-1.782" transform="translate(-23.743 -18.655)" fill="#b5a55d"/>
    <path id="Path_103974" data-name="Path 103974" d="M115.976,80a1.782,1.782,0,1,0,1.783,1.782A1.784,1.784,0,0,0,115.976,80" transform="translate(-24.351 -17.116)" fill="#b5a55d"/>
    <path id="Path_103975" data-name="Path 103975" d="M117.624,72.5a1.782,1.782,0,1,0,1.783,1.782,1.784,1.784,0,0,0-1.783-1.782" transform="translate(-24.702 -15.51)" fill="#b5a55d"/>
    <path id="Path_103976" data-name="Path 103976" d="M118.159,64.79a1.782,1.782,0,1,0,1.783,1.783,1.784,1.784,0,0,0-1.783-1.783" transform="translate(-24.816 -13.861)" fill="#b5a55d"/>
    <path id="Path_103977" data-name="Path 103977" d="M90.083,11.01a1.6,1.6,0,1,0,1.606,1.6,1.606,1.606,0,0,0-1.606-1.6" transform="translate(-18.867 -2.355)" fill="#b5a55d"/>
    <path id="Path_103978" data-name="Path 103978" d="M82.664,8.4a1.6,1.6,0,1,0,1.606,1.6,1.607,1.607,0,0,0-1.606-1.6" transform="translate(-17.285 -1.798)" fill="#b5a55d"/>
    <path id="Path_103979" data-name="Path 103979" d="M75.893,6.9A1.6,1.6,0,1,0,77.5,8.5a1.607,1.607,0,0,0-1.606-1.6" transform="translate(-15.841 -1.476)" fill="#b5a55d"/>
    <path id="Path_103980" data-name="Path 103980" d="M68.118,6.265a1.6,1.6,0,1,0,1.607,1.6,1.606,1.606,0,0,0-1.607-1.6" transform="translate(-14.183 -1.34)" fill="#b5a55d"/>
    <path id="Path_103981" data-name="Path 103981" d="M60.812,6.466a1.6,1.6,0,1,0,1.607,1.6,1.606,1.606,0,0,0-1.607-1.6" transform="translate(-12.625 -1.383)" fill="#b5a55d"/>
    <path id="Path_103982" data-name="Path 103982" d="M53.282,7.8a1.6,1.6,0,1,0,1.607,1.6,1.607,1.607,0,0,0-1.607-1.6" transform="translate(-11.019 -1.669)" fill="#b5a55d"/>
    <path id="Path_103983" data-name="Path 103983" d="M45.842,10.052a1.6,1.6,0,1,0,1.607,1.6,1.606,1.606,0,0,0-1.607-1.6" transform="translate(-9.433 -2.15)" fill="#b5a55d"/>
    <path id="Path_103984" data-name="Path 103984" d="M39.049,13.148a1.6,1.6,0,1,0,1.607,1.6,1.606,1.606,0,0,0-1.607-1.6" transform="translate(-7.984 -2.813)" fill="#b5a55d"/>
    <path id="Path_103985" data-name="Path 103985" d="M32.566,17.2a1.6,1.6,0,1,0,1.606,1.6,1.606,1.606,0,0,0-1.606-1.6" transform="translate(-6.602 -3.68)" fill="#b5a55d"/>
    <path id="Path_103986" data-name="Path 103986" d="M26.73,21.947a1.6,1.6,0,1,0,1.607,1.6,1.606,1.606,0,0,0-1.607-1.6" transform="translate(-5.357 -4.695)" fill="#b5a55d"/>
    <path id="Path_103987" data-name="Path 103987" d="M21.785,27.048a1.6,1.6,0,1,0,1.606,1.6,1.606,1.606,0,0,0-1.606-1.6" transform="translate(-4.303 -5.786)" fill="#b5a55d"/>
    <path id="Path_103988" data-name="Path 103988" d="M17.515,32.811a1.6,1.6,0,1,0,1.607,1.6,1.606,1.606,0,0,0-1.607-1.6" transform="translate(-3.392 -7.019)" fill="#b5a55d"/>
    <path id="Path_103989" data-name="Path 103989" d="M13.52,39.768a1.6,1.6,0,1,0,1.607,1.6,1.607,1.607,0,0,0-1.607-1.6" transform="translate(-2.54 -8.508)" fill="#b5a55d"/>
    <path id="Path_103990" data-name="Path 103990" d="M10.691,47.008a1.6,1.6,0,1,0,1.606,1.6,1.606,1.606,0,0,0-1.606-1.6" transform="translate(-1.937 -10.056)" fill="#b5a55d"/>
    <path id="Path_103991" data-name="Path 103991" d="M8.753,54.6a1.6,1.6,0,1,0,1.607,1.6,1.606,1.606,0,0,0-1.607-1.6" transform="translate(-1.524 -11.682)" fill="#b5a55d"/>
    <path id="Path_103992" data-name="Path 103992" d="M7.884,62.133a1.6,1.6,0,1,0,1.607,1.6,1.607,1.607,0,0,0-1.607-1.6" transform="translate(-1.339 -13.292)" fill="#b5a55d"/>
    <path id="Path_103993" data-name="Path 103993" d="M7.974,69.306a1.6,1.6,0,1,0,1.606,1.6,1.606,1.606,0,0,0-1.606-1.6" transform="translate(-1.358 -14.827)" fill="#b5a55d"/>
    <path id="Path_103994" data-name="Path 103994" d="M8.887,76.635a1.6,1.6,0,1,0,1.606,1.6,1.606,1.606,0,0,0-1.606-1.6" transform="translate(-1.552 -16.395)" fill="#b5a55d"/>
    <path id="Path_103995" data-name="Path 103995" d="M10.825,83.741a1.6,1.6,0,1,0,1.606,1.6,1.607,1.607,0,0,0-1.606-1.6" transform="translate(-1.966 -17.915)" fill="#b5a55d"/>
    <path id="Path_103996" data-name="Path 103996" d="M13.7,90.914a1.6,1.6,0,1,0,1.607,1.6,1.607,1.607,0,0,0-1.607-1.6" transform="translate(-2.578 -19.449)" fill="#b5a55d"/>
    <path id="Path_103997" data-name="Path 103997" d="M17.6,97.753a1.6,1.6,0,1,0,1.606,1.6,1.606,1.606,0,0,0-1.606-1.6" transform="translate(-3.41 -20.912)" fill="#b5a55d"/>
    <path id="Path_103998" data-name="Path 103998" d="M22.208,103.834a1.6,1.6,0,1,0,1.607,1.6,1.607,1.607,0,0,0-1.607-1.6" transform="translate(-4.393 -22.213)" fill="#b5a55d"/>
    <path id="Path_103999" data-name="Path 103999" d="M27.576,109.248a1.6,1.6,0,1,0,1.607,1.6,1.606,1.606,0,0,0-1.607-1.6" transform="translate(-5.538 -23.372)" fill="#b5a55d"/>
    <path id="Path_104000" data-name="Path 104000" d="M33.568,113.97a1.6,1.6,0,1,0,1.607,1.6,1.606,1.606,0,0,0-1.607-1.6" transform="translate(-6.815 -24.382)" fill="#b5a55d"/>
    <path id="Path_104001" data-name="Path 104001" d="M39.895,117.645a1.6,1.6,0,1,0,1.607,1.6,1.606,1.606,0,0,0-1.607-1.6" transform="translate(-8.165 -25.168)" fill="#b5a55d"/>
    <path id="Path_104002" data-name="Path 104002" d="M46.511,120.608a1.6,1.6,0,1,0,1.607,1.6,1.606,1.606,0,0,0-1.607-1.6" transform="translate(-9.575 -25.802)" fill="#b5a55d"/>
    <path id="Path_104003" data-name="Path 104003" d="M54.04,122.725a1.6,1.6,0,1,0,1.607,1.6,1.606,1.606,0,0,0-1.607-1.6" transform="translate(-11.181 -26.255)" fill="#b5a55d"/>
    <path id="Path_104004" data-name="Path 104004" d="M62.193,123.994a1.6,1.6,0,1,0,1.607,1.6,1.607,1.607,0,0,0-1.607-1.6" transform="translate(-12.92 -26.526)" fill="#b5a55d"/>
    <path id="Path_104005" data-name="Path 104005" d="M69.5,124.105a1.6,1.6,0,1,0,1.606,1.6,1.607,1.607,0,0,0-1.606-1.6" transform="translate(-14.478 -26.55)" fill="#b5a55d"/>
    <path id="Path_104006" data-name="Path 104006" d="M77.118,123.215a1.6,1.6,0,1,0,1.606,1.6,1.606,1.606,0,0,0-1.606-1.6" transform="translate(-16.102 -26.36)" fill="#b5a55d"/>
    <path id="Path_104007" data-name="Path 104007" d="M84.692,121.432a1.6,1.6,0,1,0,1.606,1.6,1.607,1.607,0,0,0-1.606-1.6" transform="translate(-17.717 -25.978)" fill="#b5a55d"/>
    <path id="Path_104008" data-name="Path 104008" d="M91.664,118.648a1.6,1.6,0,1,0,1.607,1.6,1.606,1.606,0,0,0-1.607-1.6" transform="translate(-19.204 -25.383)" fill="#b5a55d"/>
    <path id="Path_104009" data-name="Path 104009" d="M97.968,115.218a1.6,1.6,0,1,0,1.607,1.6,1.606,1.606,0,0,0-1.607-1.6" transform="translate(-20.548 -24.649)" fill="#b5a55d"/>
    <path id="Path_104010" data-name="Path 104010" d="M103.738,111.118a1.6,1.6,0,1,0,1.607,1.6,1.606,1.606,0,0,0-1.607-1.6" transform="translate(-21.779 -23.772)" fill="#b5a55d"/>
    <path id="Path_104011" data-name="Path 104011" d="M109.552,105.772a1.6,1.6,0,1,0,1.606,1.6,1.606,1.606,0,0,0-1.606-1.6" transform="translate(-23.019 -22.628)" fill="#b5a55d"/>
    <path id="Path_104012" data-name="Path 104012" d="M114.531,99.8a1.6,1.6,0,1,0,1.606,1.6,1.606,1.606,0,0,0-1.606-1.6" transform="translate(-24.08 -21.351)" fill="#b5a55d"/>
    <path id="Path_104013" data-name="Path 104013" d="M118.418,93.676a1.6,1.6,0,1,0,1.6,1.6,1.607,1.607,0,0,0-1.6-1.6" transform="translate(-24.909 -20.04)" fill="#b5a55d"/>
    <path id="Path_104014" data-name="Path 104014" d="M121.669,86.728a1.6,1.6,0,1,0,1.606,1.6,1.607,1.607,0,0,0-1.606-1.6" transform="translate(-25.602 -18.554)" fill="#b5a55d"/>
    <path id="Path_104015" data-name="Path 104015" d="M123.9,79.912a1.6,1.6,0,1,0,1.607,1.6,1.606,1.606,0,0,0-1.607-1.6" transform="translate(-26.079 -17.096)" fill="#b5a55d"/>
    <path id="Path_104016" data-name="Path 104016" d="M125.313,72.882a1.6,1.6,0,1,0,1.606,1.6,1.606,1.606,0,0,0-1.606-1.6" transform="translate(-26.379 -15.592)" fill="#b5a55d"/>
    <path id="Path_104017" data-name="Path 104017" d="M125.725,65.118a1.6,1.6,0,1,0,1.606,1.6,1.606,1.606,0,0,0-1.606-1.6" transform="translate(-26.467 -13.931)" fill="#b5a55d"/>
    <path id="Path_104018" data-name="Path 104018" d="M103.478,19.084a1.6,1.6,0,1,0,1.606,1.6,1.605,1.605,0,0,0-1.606-1.6" transform="translate(-21.724 -4.083)" fill="#b5a55d"/>
    <path id="Path_104019" data-name="Path 104019" d="M97,14.584a1.6,1.6,0,1,0,1.606,1.6A1.605,1.605,0,0,0,97,14.584" transform="translate(-20.341 -3.12)" fill="#b5a55d"/>
    <path id="Path_104020" data-name="Path 104020" d="M125.21,57.419a1.624,1.624,0,1,0,1.625,1.623,1.628,1.628,0,0,0-1.625-1.623" transform="translate(-26.353 -12.284)" fill="#b5a55d"/>
    <path id="Path_104021" data-name="Path 104021" d="M123.624,49.473A1.624,1.624,0,1,0,125.25,51.1a1.628,1.628,0,0,0-1.626-1.624" transform="translate(-26.015 -10.584)" fill="#b5a55d"/>
    <path id="Path_104022" data-name="Path 104022" d="M121.089,42.2a1.624,1.624,0,1,0,1.626,1.624,1.628,1.628,0,0,0-1.626-1.624" transform="translate(-25.474 -9.029)" fill="#b5a55d"/>
    <path id="Path_104023" data-name="Path 104023" d="M117.659,35.388a1.624,1.624,0,1,0,1.626,1.624,1.628,1.628,0,0,0-1.626-1.624" transform="translate(-24.743 -7.571)" fill="#b5a55d"/>
    <path id="Path_104024" data-name="Path 104024" d="M113.582,29.329a1.624,1.624,0,1,0,1.626,1.623,1.628,1.628,0,0,0-1.626-1.623" transform="translate(-23.873 -6.274)" fill="#b5a55d"/>
    <path id="Path_104025" data-name="Path 104025" d="M108.77,23.715a1.624,1.624,0,1,0,1.626,1.624,1.628,1.628,0,0,0-1.626-1.624" transform="translate(-22.847 -5.073)" fill="#b5a55d"/>
    <path id="Path_104026" data-name="Path 104026" d="M132.659,65.361A1.338,1.338,0,1,0,134,66.7a1.34,1.34,0,0,0-1.338-1.337" transform="translate(-28.003 -13.983)" fill="#b5a55d"/>
    <path id="Path_104027" data-name="Path 104027" d="M132.377,72.6a1.425,1.425,0,1,0,1.425,1.424,1.428,1.428,0,0,0-1.425-1.424" transform="translate(-27.924 -15.532)" fill="#b5a55d"/>
    <path id="Path_104028" data-name="Path 104028" d="M131.091,80.011a1.426,1.426,0,1,0,1.426,1.424,1.427,1.427,0,0,0-1.426-1.424" transform="translate(-27.65 -17.117)" fill="#b5a55d"/>
    <path id="Path_104029" data-name="Path 104029" d="M128.947,87.287a1.389,1.389,0,1,0,1.389,1.39,1.392,1.392,0,0,0-1.389-1.39" transform="translate(-27.2 -18.673)" fill="#b5a55d"/>
    <path id="Path_104030" data-name="Path 104030" d="M126.415,94.036a1.461,1.461,0,1,0,1.461,1.462,1.462,1.462,0,0,0-1.461-1.462" transform="translate(-26.646 -20.117)" fill="#b5a55d"/>
    <path id="Path_104031" data-name="Path 104031" d="M122.864,100.41a1.389,1.389,0,1,0,1.392,1.387,1.391,1.391,0,0,0-1.392-1.387" transform="translate(-25.903 -21.481)" fill="#b5a55d"/>
    <path id="Path_104032" data-name="Path 104032" d="M118.551,106.473a1.389,1.389,0,1,0,1.39,1.388,1.392,1.392,0,0,0-1.39-1.388" transform="translate(-24.983 -22.778)" fill="#b5a55d"/>
    <path id="Path_104033" data-name="Path 104033" d="M113.761,111.939a1.407,1.407,0,1,0,1.408,1.409,1.409,1.409,0,0,0-1.408-1.409" transform="translate(-23.959 -23.947)" fill="#b5a55d"/>
    <path id="Path_104034" data-name="Path 104034" d="M108.084,117a1.389,1.389,0,1,0,1.392,1.389A1.391,1.391,0,0,0,108.084,117" transform="translate(-22.752 -25.031)" fill="#b5a55d"/>
    <path id="Path_104035" data-name="Path 104035" d="M101.988,121.3a1.389,1.389,0,1,0,1.392,1.388,1.391,1.391,0,0,0-1.392-1.388" transform="translate(-21.452 -25.949)" fill="#b5a55d"/>
    <path id="Path_104036" data-name="Path 104036" d="M95.5,124.907a1.461,1.461,0,1,0,1.461,1.462,1.464,1.464,0,0,0-1.461-1.462" transform="translate(-20.053 -26.722)" fill="#b5a55d"/>
    <path id="Path_104037" data-name="Path 104037" d="M88.711,127.779a1.389,1.389,0,1,0,1.392,1.389,1.392,1.392,0,0,0-1.392-1.389" transform="translate(-18.62 -27.336)" fill="#b5a55d"/>
    <path id="Path_104038" data-name="Path 104038" d="M81.556,129.81a1.425,1.425,0,1,0,1.426,1.424,1.427,1.427,0,0,0-1.426-1.424" transform="translate(-17.087 -27.77)" fill="#b5a55d"/>
    <path id="Path_104039" data-name="Path 104039" d="M74.2,131.044a1.426,1.426,0,1,0,1.426,1.426,1.428,1.428,0,0,0-1.426-1.426" transform="translate(-15.519 -28.034)" fill="#b5a55d"/>
    <path id="Path_104040" data-name="Path 104040" d="M66.835,131.469a1.426,1.426,0,1,0,1.426,1.426,1.428,1.428,0,0,0-1.426-1.426" transform="translate(-13.948 -28.125)" fill="#b5a55d"/>
    <path id="Path_104041" data-name="Path 104041" d="M59.573,131.077a1.408,1.408,0,1,0,1.408,1.41,1.41,1.41,0,0,0-1.408-1.41" transform="translate(-12.403 -28.042)" fill="#b5a55d"/>
    <path id="Path_104042" data-name="Path 104042" d="M52.194,129.8a1.372,1.372,0,1,0,1.371,1.371,1.374,1.374,0,0,0-1.371-1.371" transform="translate(-10.837 -27.768)" fill="#b5a55d"/>
    <path id="Path_104043" data-name="Path 104043" d="M45.114,127.755a1.372,1.372,0,1,0,1.371,1.372,1.374,1.374,0,0,0-1.371-1.372" transform="translate(-9.328 -27.331)" fill="#b5a55d"/>
    <path id="Path_104044" data-name="Path 104044" d="M38.256,124.964a1.426,1.426,0,1,0,1.426,1.424,1.426,1.426,0,0,0-1.426-1.424" transform="translate(-7.854 -26.734)" fill="#b5a55d"/>
    <path id="Path_104045" data-name="Path 104045" d="M31.844,121.34a1.354,1.354,0,1,0,1.354,1.354,1.355,1.355,0,0,0-1.354-1.354" transform="translate(-6.502 -25.958)" fill="#b5a55d"/>
    <path id="Path_104046" data-name="Path 104046" d="M25.848,117.052a1.228,1.228,0,1,0,1.228,1.229,1.23,1.23,0,0,0-1.228-1.229" transform="translate(-5.25 -25.041)" fill="#b5a55d"/>
    <path id="Path_104047" data-name="Path 104047" d="M20.166,112.141a1.354,1.354,0,1,0,1.353,1.355,1.356,1.356,0,0,0-1.353-1.355" transform="translate(-4.012 -23.99)" fill="#b5a55d"/>
    <path id="Path_104048" data-name="Path 104048" d="M15.271,106.562a1.318,1.318,0,1,0,1.318,1.317,1.32,1.32,0,0,0-1.318-1.317" transform="translate(-2.975 -22.797)" fill="#b5a55d"/>
    <path id="Path_104049" data-name="Path 104049" d="M10.989,100.566a1.318,1.318,0,1,0,1.318,1.317,1.32,1.32,0,0,0-1.318-1.317" transform="translate(-2.062 -21.514)" fill="#b5a55d"/>
    <path id="Path_104050" data-name="Path 104050" d="M7.538,94.089a1.246,1.246,0,1,0,1.246,1.246,1.248,1.248,0,0,0-1.246-1.246" transform="translate(-1.342 -20.129)" fill="#b5a55d"/>
    <path id="Path_104051" data-name="Path 104051" d="M4.594,87.214a1.3,1.3,0,1,0,1.3,1.3,1.3,1.3,0,0,0-1.3-1.3" transform="translate(-0.702 -18.658)" fill="#b5a55d"/>
    <path id="Path_104052" data-name="Path 104052" d="M2.762,80.183A1.156,1.156,0,1,0,3.92,81.338a1.157,1.157,0,0,0-1.158-1.155" transform="translate(-0.342 -17.154)" fill="#b5a55d"/>
    <path id="Path_104053" data-name="Path 104053" d="M1.545,72.906A1.174,1.174,0,1,0,2.719,74.08a1.176,1.176,0,0,0-1.175-1.174" transform="translate(-0.079 -15.597)" fill="#b5a55d"/>
    <path id="Path_104054" data-name="Path 104054" d="M1.175,65.627A1.174,1.174,0,1,0,2.348,66.8a1.176,1.176,0,0,0-1.174-1.174" transform="translate(0 -14.04)" fill="#b5a55d"/>
    <path id="Path_104055" data-name="Path 104055" d="M1.646,58.195a1.138,1.138,0,1,0,1.139,1.138,1.14,1.14,0,0,0-1.139-1.138" transform="translate(-0.108 -12.45)" fill="#b5a55d"/>
    <path id="Path_104056" data-name="Path 104056" d="M2.933,51.054a1.1,1.1,0,1,0,1.1,1.1,1.1,1.1,0,0,0-1.1-1.1" transform="translate(-0.39 -10.922)" fill="#b5a55d"/>
    <path id="Path_104057" data-name="Path 104057" d="M4.7,43.724a1.263,1.263,0,1,0,1.264,1.262A1.265,1.265,0,0,0,4.7,43.724" transform="translate(-0.732 -9.354)" fill="#b5a55d"/>
    <path id="Path_104058" data-name="Path 104058" d="M7.642,36.964a1.192,1.192,0,1,0,1.193,1.192,1.193,1.193,0,0,0-1.193-1.192" transform="translate(-1.375 -7.908)" fill="#b5a55d"/>
    <path id="Path_104059" data-name="Path 104059" d="M11.181,30.458a1.264,1.264,0,1,0,1.264,1.263,1.265,1.265,0,0,0-1.264-1.263" transform="translate(-2.115 -6.516)" fill="#b5a55d"/>
    <path id="Path_104060" data-name="Path 104060" d="M15.692,24.632a1.156,1.156,0,1,0,1.157,1.156,1.158,1.158,0,0,0-1.157-1.156" transform="translate(-3.099 -5.27)" fill="#b5a55d"/>
    <path id="Path_104061" data-name="Path 104061" d="M20.408,18.914A1.281,1.281,0,1,0,21.692,20.2a1.283,1.283,0,0,0-1.283-1.281" transform="translate(-4.078 -4.046)" fill="#b5a55d"/>
    <path id="Path_104062" data-name="Path 104062" d="M26.245,14.157A1.155,1.155,0,1,0,27.4,15.312a1.158,1.158,0,0,0-1.159-1.155" transform="translate(-5.35 -3.029)" fill="#b5a55d"/>
    <path id="Path_104063" data-name="Path 104063" d="M32.035,9.75A1.263,1.263,0,1,0,33.3,11.013,1.265,1.265,0,0,0,32.035,9.75" transform="translate(-6.562 -2.086)" fill="#b5a55d"/>
    <path id="Path_104064" data-name="Path 104064" d="M38.413,6.337A1.192,1.192,0,1,0,39.6,7.529a1.193,1.193,0,0,0-1.191-1.192" transform="translate(-7.937 -1.356)" fill="#b5a55d"/>
    <path id="Path_104065" data-name="Path 104065" d="M45.356,3.356A1.263,1.263,0,1,0,46.62,4.619a1.265,1.265,0,0,0-1.264-1.263" transform="translate(-9.402 -0.718)" fill="#b5a55d"/>
    <path id="Path_104066" data-name="Path 104066" d="M52.5,1.774a1.1,1.1,0,1,0,1.1,1.1,1.1,1.1,0,0,0-1.1-1.1" transform="translate(-10.96 -0.38)" fill="#b5a55d"/>
    <path id="Path_104067" data-name="Path 104067" d="M59.767.448a1.138,1.138,0,1,0,1.139,1.138A1.14,1.14,0,0,0,59.767.448" transform="translate(-12.502 -0.096)" fill="#b5a55d"/>
    <path id="Path_104068" data-name="Path 104068" d="M67.136,0a1.174,1.174,0,1,0,1.175,1.174A1.175,1.175,0,0,0,67.136,0" transform="translate(-14.066)" fill="#b5a55d"/>
    <path id="Path_104069" data-name="Path 104069" d="M74.382.4a1.174,1.174,0,1,0,1.174,1.174A1.176,1.176,0,0,0,74.382.4" transform="translate(-15.611 -0.086)" fill="#b5a55d"/>
    <path id="Path_104070" data-name="Path 104070" d="M81.55,1.605a1.156,1.156,0,1,0,1.158,1.156A1.158,1.158,0,0,0,81.55,1.605" transform="translate(-17.143 -0.343)" fill="#b5a55d"/>
    <path id="Path_104071" data-name="Path 104071" d="M88.636,3.267a1.3,1.3,0,1,0,1.3,1.3,1.3,1.3,0,0,0-1.3-1.3" transform="translate(-18.624 -0.699)" fill="#b5a55d"/>
    <path id="Path_104072" data-name="Path 104072" d="M95.47,6.226a1.245,1.245,0,1,0,1.247,1.245A1.248,1.248,0,0,0,95.47,6.226" transform="translate(-20.092 -1.332)" fill="#b5a55d"/>
    <path id="Path_104073" data-name="Path 104073" d="M101.908,9.637a1.317,1.317,0,1,0,1.319,1.317,1.319,1.319,0,0,0-1.319-1.317" transform="translate(-21.45 -2.062)" fill="#b5a55d"/>
    <path id="Path_104074" data-name="Path 104074" d="M107.927,13.906a1.317,1.317,0,1,0,1.32,1.318,1.32,1.32,0,0,0-1.32-1.318" transform="translate(-22.734 -2.975)" fill="#b5a55d"/>
    <path id="Path_104075" data-name="Path 104075" d="M113.419,18.778a1.353,1.353,0,1,0,1.355,1.354,1.355,1.355,0,0,0-1.355-1.354" transform="translate(-23.897 -4.017)" fill="#b5a55d"/>
    <path id="Path_104076" data-name="Path 104076" d="M118.372,24.441a1.227,1.227,0,1,0,1.227,1.228,1.23,1.23,0,0,0-1.227-1.228" transform="translate(-24.98 -5.229)" fill="#b5a55d"/>
    <path id="Path_104077" data-name="Path 104077" d="M122.606,30.3a1.353,1.353,0,1,0,1.355,1.354,1.355,1.355,0,0,0-1.355-1.354" transform="translate(-25.856 -6.482)" fill="#b5a55d"/>
    <path id="Path_104078" data-name="Path 104078" d="M126.269,36.644a1.425,1.425,0,1,0,1.426,1.424,1.427,1.427,0,0,0-1.426-1.424" transform="translate(-26.622 -7.839)" fill="#b5a55d"/>
    <path id="Path_104079" data-name="Path 104079" d="M129,43.553a1.371,1.371,0,1,0,1.372,1.372A1.374,1.374,0,0,0,129,43.553" transform="translate(-27.215 -9.317)" fill="#b5a55d"/>
    <path id="Path_104080" data-name="Path 104080" d="M131.039,50.644a1.371,1.371,0,1,0,1.373,1.372,1.373,1.373,0,0,0-1.373-1.372" transform="translate(-27.651 -10.834)" fill="#b5a55d"/>
    <path id="Path_104081" data-name="Path 104081" d="M132.265,57.874a1.407,1.407,0,1,0,1.408,1.408,1.41,1.41,0,0,0-1.408-1.408" transform="translate(-27.904 -12.381)" fill="#b5a55d"/>
    <path id="Path_104082" data-name="Path 104082" d="M52.053,76.307H76.142V52.239H52.053Zm21.407-2.68H54.734V54.918H73.46Z" transform="translate(-11.1 -11.176)" fill="#b5a55d"/>
    <path id="Union_26" data-name="Union 26" d="M-5116.807-301.254l1.533-3.565-3.109-8.134h1.554l2.337,6.328,2.328-6.328h1.5l-4.6,11.7Zm132.226-3.206a2.753,2.753,0,0,1-1.008-.85,4.193,4.193,0,0,1-.65-1.4,7.2,7.2,0,0,1-.229-1.91,5.888,5.888,0,0,1,.29-1.948,4.6,4.6,0,0,1,.8-1.434,3.343,3.343,0,0,1,1.129-.877,3.183,3.183,0,0,1,1.39-.317,3.974,3.974,0,0,1,1.118.141,5.035,5.035,0,0,1,1,.44v-3.7h1.44v11.908h-1.44v-.873q-.338.284-.582.466a3.145,3.145,0,0,1-.575.337,3.348,3.348,0,0,1-.635.227,3.288,3.288,0,0,1-.767.08A2.89,2.89,0,0,1-4984.582-304.46Zm.226-6.585a3.928,3.928,0,0,0-.627,2.4,4.511,4.511,0,0,0,.482,2.307,1.668,1.668,0,0,0,1.547.8,2.759,2.759,0,0,0,1.141-.257,4.379,4.379,0,0,0,1.081-.692v-4.928a4.779,4.779,0,0,0-.961-.36,4.067,4.067,0,0,0-.922-.1A2.058,2.058,0,0,0-4984.356-311.045Zm-71.992,6.693a2.224,2.224,0,0,1-.863-.582,2.754,2.754,0,0,1-.57-1,4.665,4.665,0,0,1-.2-1.469v-5.549h1.439v4.868a10.775,10.775,0,0,0,.049,1.127,2.207,2.207,0,0,0,.227.785,1.109,1.109,0,0,0,.479.482,1.974,1.974,0,0,0,.869.153,2.524,2.524,0,0,0,1.127-.3,5.131,5.131,0,0,0,1.095-.735v-6.383h1.439v8.549h-1.439v-.95a6.265,6.265,0,0,1-1.263.884,2.907,2.907,0,0,1-1.333.3A3.011,3.011,0,0,1-5056.348-304.352Zm-16.571-.014a2.577,2.577,0,0,1-.834-.56,2.571,2.571,0,0,1-.552-.868,2.924,2.924,0,0,1-.207-1.091,2.881,2.881,0,0,1,.375-1.511,2.58,2.58,0,0,1,1.187-.992,5.971,5.971,0,0,1,1.7-.455q.979-.126,2.114-.187v-.276a1.861,1.861,0,0,0-.153-.815,1.132,1.132,0,0,0-.43-.478,1.677,1.677,0,0,0-.673-.234,5.852,5.852,0,0,0-.82-.057,5.586,5.586,0,0,0-1.171.149,7.82,7.82,0,0,0-1.348.433h-.085v-1.461q.4-.115,1.142-.253a8.036,8.036,0,0,1,1.47-.137,6.807,6.807,0,0,1,1.486.137,2.859,2.859,0,0,1,1.088.5,2.118,2.118,0,0,1,.7.911,3.57,3.57,0,0,1,.23,1.363v5.845h-1.432v-.909c-.118.086-.276.207-.472.363a3.335,3.335,0,0,1-.571.37,4.2,4.2,0,0,1-.738.306,3.59,3.59,0,0,1-1,.108A2.58,2.58,0,0,1-5072.918-304.367Zm2.485-4.389a7.194,7.194,0,0,0-1.267.225,2.314,2.314,0,0,0-.949.54,1.344,1.344,0,0,0-.376,1.013,1.428,1.428,0,0,0,.413,1.11,1.749,1.749,0,0,0,1.211.374,2.56,2.56,0,0,0,1.232-.294,5.412,5.412,0,0,0,1.035-.723v-2.372C-5069.476-308.852-5069.91-308.81-5070.434-308.756Zm-21.448,4.389a2.577,2.577,0,0,1-.834-.56,2.609,2.609,0,0,1-.552-.868,2.924,2.924,0,0,1-.207-1.091,2.881,2.881,0,0,1,.375-1.511,2.578,2.578,0,0,1,1.188-.992,5.952,5.952,0,0,1,1.7-.455q.979-.126,2.113-.187v-.276a1.861,1.861,0,0,0-.153-.815,1.132,1.132,0,0,0-.43-.478,1.678,1.678,0,0,0-.672-.234,5.871,5.871,0,0,0-.82-.057,5.587,5.587,0,0,0-1.172.149,7.82,7.82,0,0,0-1.348.433h-.084v-1.461q.4-.115,1.14-.253a8.048,8.048,0,0,1,1.47-.137,6.8,6.8,0,0,1,1.486.137,2.859,2.859,0,0,1,1.088.5,2.12,2.12,0,0,1,.7.911,3.589,3.589,0,0,1,.231,1.363v5.845h-1.433v-.909c-.118.086-.274.207-.472.363a3.271,3.271,0,0,1-.57.37,4.2,4.2,0,0,1-.74.306,3.578,3.578,0,0,1-1,.108A2.586,2.586,0,0,1-5091.882-304.367Zm2.486-4.389a7.214,7.214,0,0,0-1.269.225,2.32,2.32,0,0,0-.948.54,1.34,1.34,0,0,0-.375,1.013,1.423,1.423,0,0,0,.413,1.11,1.744,1.744,0,0,0,1.21.374,2.571,2.571,0,0,0,1.233-.294,5.417,5.417,0,0,0,1.034-.723v-2.372Q-5088.61-308.837-5089.4-308.756Zm-61.423,4.389a2.584,2.584,0,0,1-.835-.56,2.591,2.591,0,0,1-.551-.868,2.9,2.9,0,0,1-.207-1.091,2.881,2.881,0,0,1,.375-1.511,2.566,2.566,0,0,1,1.187-.992,5.952,5.952,0,0,1,1.7-.455q.979-.126,2.113-.187v-.276a1.84,1.84,0,0,0-.153-.815,1.129,1.129,0,0,0-.429-.478,1.693,1.693,0,0,0-.674-.234,5.839,5.839,0,0,0-.82-.057,5.586,5.586,0,0,0-1.171.149,7.82,7.82,0,0,0-1.348.433h-.085v-1.461q.4-.115,1.142-.253a8.024,8.024,0,0,1,1.47-.137,6.807,6.807,0,0,1,1.486.137,2.879,2.879,0,0,1,1.088.5,2.129,2.129,0,0,1,.7.911,3.57,3.57,0,0,1,.23,1.363v5.845h-1.433v-.909c-.116.086-.274.207-.47.363a3.335,3.335,0,0,1-.571.37,4.184,4.184,0,0,1-.738.306,3.6,3.6,0,0,1-1,.108A2.584,2.584,0,0,1-5150.819-304.367Zm2.485-4.389a7.169,7.169,0,0,0-1.267.225,2.316,2.316,0,0,0-.95.54,1.346,1.346,0,0,0-.375,1.013,1.423,1.423,0,0,0,.413,1.11,1.748,1.748,0,0,0,1.211.374,2.564,2.564,0,0,0,1.232-.294,5.372,5.372,0,0,0,1.034-.723v-2.372C-5147.376-308.852-5147.811-308.81-5148.334-308.756Zm153.28,3.4a4.472,4.472,0,0,1-1.129-3.271,4.83,4.83,0,0,1,1.095-3.324,3.64,3.64,0,0,1,2.864-1.236,3.977,3.977,0,0,1,1.409.231,2.782,2.782,0,0,1,1.073.718,3.329,3.329,0,0,1,.705,1.2,5.345,5.345,0,0,1,.245,1.733v.781h-5.928a3.183,3.183,0,0,0,.75,2.28,2.731,2.731,0,0,0,2.076.788,4.063,4.063,0,0,0,.931-.106,4.339,4.339,0,0,0,.823-.276,5.9,5.9,0,0,0,.66-.341,4.057,4.057,0,0,0,.444-.31h.083v1.569l-.627.249a6.826,6.826,0,0,1-.673.233q-.422.115-.763.176a5.074,5.074,0,0,1-.861.061A4.242,4.242,0,0,1-4995.054-305.359Zm1.769-6.474a2.326,2.326,0,0,0-.731.5,2.388,2.388,0,0,0-.491.746,3.2,3.2,0,0,0-.214.952h4.526a3.94,3.94,0,0,0-.139-1,2.051,2.051,0,0,0-.352-.711,1.609,1.609,0,0,0-.646-.49,2.508,2.508,0,0,0-.977-.168A2.467,2.467,0,0,0-4993.286-311.833Zm-8.264,6.924a2.919,2.919,0,0,1-.659-2.114v-4.738h-.972v-1.193h.972v-2.458h1.44v2.458h2.649v1.193h-2.649v4.064c0,.434.008.767.022,1a1.731,1.731,0,0,0,.176.659.843.843,0,0,0,.422.4,1.913,1.913,0,0,0,.789.135,2.273,2.273,0,0,0,.681-.1,4.1,4.1,0,0,0,.474-.171h.084v1.292a6.6,6.6,0,0,1-.823.18,5.094,5.094,0,0,1-.77.065A2.458,2.458,0,0,1-5001.55-304.908Zm-5.793.5v-8.548h1.439v8.548Zm-4.951,0v-4.944c0-.394-.016-.757-.045-1.091a2.205,2.205,0,0,0-.193-.785.986.986,0,0,0-.436-.451,1.689,1.689,0,0,0-.766-.145,2.049,2.049,0,0,0-.955.271,5.012,5.012,0,0,0-1.053.785c0,.087.012.19.02.31s.012.262.012.425v5.625h-1.441v-4.944c0-.394-.014-.757-.045-1.091a2.157,2.157,0,0,0-.191-.785.99.99,0,0,0-.437-.451,1.687,1.687,0,0,0-.766-.145,1.992,1.992,0,0,0-.981.29,5.289,5.289,0,0,0-1,.742v6.383h-1.44v-8.549h1.44v.95a5.2,5.2,0,0,1,1.122-.876,2.459,2.459,0,0,1,1.222-.311,2.609,2.609,0,0,1,1.345.345,2.154,2.154,0,0,1,.891,1.132,5.77,5.77,0,0,1,1.272-1.1,2.557,2.557,0,0,1,1.347-.376,2.819,2.819,0,0,1,1,.172,2.011,2.011,0,0,1,.789.556,2.674,2.674,0,0,1,.531.972,4.814,4.814,0,0,1,.188,1.461v5.625Zm-14.725,0v-8.548h1.439v8.548Zm-9.179,0V-315.8h1.516v10.047h5.094v1.347Zm-11.488,0v-11.908h1.439v11.908Zm-16.383,0v-7.355h-.973v-1.194h.973v-.282a3.344,3.344,0,0,1,.744-2.35,2.755,2.755,0,0,1,2.128-.8,7.036,7.036,0,0,1,.781.043c.255.027.487.06.7.095v1.318h-.076a3.673,3.673,0,0,0-.552-.133,3.6,3.6,0,0,0-.643-.066,1.725,1.725,0,0,0-1.3.409,2.168,2.168,0,0,0-.387,1.481v.29h2.381v1.194h-2.334v7.355Zm-13.915,0-3.194-4.125-.566.551v3.574h-1.44v-11.908h1.44v6.972l3.385-3.612h1.793l-3.516,3.573,3.99,4.975Zm-20.993,0v-10.048h-3.83V-315.8h9.176v1.346h-3.83v10.048Zm-23.424,0v-11.908h1.439v11.908Zm-5.059,0v-8.548h1.441v8.548Zm-4.951,0v-4.944c0-.394-.014-.757-.045-1.091a2.176,2.176,0,0,0-.192-.785.99.99,0,0,0-.435-.451,1.7,1.7,0,0,0-.767-.145,2.048,2.048,0,0,0-.953.271,4.963,4.963,0,0,0-1.053.785c0,.087.011.19.018.31s.013.262.013.425v5.625h-1.44v-4.944c0-.394-.014-.757-.045-1.091a2.207,2.207,0,0,0-.192-.785.993.993,0,0,0-.437-.451,1.689,1.689,0,0,0-.766-.145,1.986,1.986,0,0,0-.98.29,5.274,5.274,0,0,0-1,.742v6.383h-1.44v-8.549h1.44v.95a5.166,5.166,0,0,1,1.122-.876,2.453,2.453,0,0,1,1.22-.311,2.6,2.6,0,0,1,1.345.345,2.156,2.156,0,0,1,.893,1.132,5.8,5.8,0,0,1,1.271-1.1,2.558,2.558,0,0,1,1.349-.376,2.821,2.821,0,0,1,1,.172,2,2,0,0,1,.788.556,2.7,2.7,0,0,1,.533.972,4.815,4.815,0,0,1,.188,1.461v5.625Zm-28.207,0v-11.4h6.824v1.347h-5.308v3.214h5.085v1.347h-5.085v5.486Zm153.173-9.979v-1.491h1.639v1.491Zm-19.673,0v-1.491h1.639v1.491Zm-100.44,0v-1.491h1.639v1.491Zm-31.532-12.126a6.011,6.011,0,0,1-2.91-5.021,3.459,3.459,0,0,1,.935-2.46,3.013,3.013,0,0,1,2.279-1,2.47,2.47,0,0,1,1.729.61,2.087,2.087,0,0,1,.671,1.626,1.708,1.708,0,0,1-.468,1.2,1.469,1.469,0,0,1-1.12.508q-.488.041-.488.285,0,1.343,2.138,2.42a10.47,10.47,0,0,0,4.782,1.077,7.411,7.411,0,0,0,5.352-2.013,6.818,6.818,0,0,0,2.095-5.143,6.315,6.315,0,0,0-1.77-4.736,6.665,6.665,0,0,0-4.863-1.728,8.226,8.226,0,0,0-6.023,2.2,14.864,14.864,0,0,1-1.262,1.118,2.087,2.087,0,0,1-.935.346h-.164q-1.587,0-1.587-1.789a.374.374,0,0,1,.04-.163l.57-7.847q.039-.651.082-2.236a7.8,7.8,0,0,1,.325-2.745q.286-.507,1.505-.508h10.093q1.179,0,1.79-.04,1.221-.082,1.669-.082,1.626,0,1.627,2.4l-.04.284a11.384,11.384,0,0,0,.325,2.481,2.835,2.835,0,0,1,.163.894q0,1.3-1.384,1.3-1.3,0-1.383-1.912-.083-2.276-2-2.276h-8.5q-1.017,0-1.139,1.464l-.49,6.5a12.05,12.05,0,0,1,7-2.195,10.266,10.266,0,0,1,7.2,2.419,8.512,8.512,0,0,1,2.646,6.607,9.44,9.44,0,0,1-3.155,7.38,11.881,11.881,0,0,1-8.24,2.825A12,12,0,0,1-5159.09-326.51Zm141.373.224a5.346,5.346,0,0,1-1.973-4.35,5.275,5.275,0,0,1,2.889-4.962,7.611,7.611,0,0,1,1.891-.792q.795-.185,3.195-.468a12.31,12.31,0,0,0,4.457-1.017,2.605,2.605,0,0,0,1.038-2.4,3.212,3.212,0,0,0-1.16-2.622,4.947,4.947,0,0,0-3.235-.956,6.219,6.219,0,0,0-3.418,1.017c-.408.271-.61.556-.61.854,0,.108.122.244.367.407a1.582,1.582,0,0,1,.569,1.382,1.718,1.718,0,0,1-.591,1.341,2.136,2.136,0,0,1-1.485.53,2.372,2.372,0,0,1-1.77-.732,2.466,2.466,0,0,1-.712-1.789,4.728,4.728,0,0,1,2.258-3.9,9.118,9.118,0,0,1,5.474-1.627q7.408,0,7.408,7.1v8.2a16.991,16.991,0,0,0,.082,2.312q.243,1.421,1.382,1.42,1.425,0,1.425-2.583v-1.978q0-1.292,1.241-1.293,1.323,0,1.323,1.952v2.521q-.082,3.9-4.151,3.9-3.338,0-4.11-2.888-2.076,3.049-6.511,3.05A8.036,8.036,0,0,1-5017.717-326.286Zm9.491-8.377a18.88,18.88,0,0,1-3.547.57q-4.621.447-4.621,3.415a2.955,2.955,0,0,0,1.119,2.439,4.722,4.722,0,0,0,3.031.894,5.987,5.987,0,0,0,4.293-1.483,5.487,5.487,0,0,0,1.608-4.086V-335.8A5.218,5.218,0,0,1-5008.227-334.663ZM-5133.6-326.9q-1.011-1.5-1.01-5.124v-9.758q0-.855-.791-.854h-1.332a1.515,1.515,0,0,1-1.1-.427,1.394,1.394,0,0,1-.437-1.036,1.432,1.432,0,0,1,.428-1.017,1.3,1.3,0,0,1,.956-.447h1.587q.691,0,.692-.772v-4.188a1.385,1.385,0,0,1,1.587-1.546q1.465,0,1.465,1.546v4.35q0,.61.733.61h4.436q1.545,0,1.545,1.422,0,1.506-1.667,1.505h-4.477c-.38,0-.57.284-.57.854v10q0,4.269,2.848,4.27,2.888,0,3.012-3.456v-2.6q.04-1.667,1.465-1.667t1.425,1.869q0,4.433-1.132,6.181-1.535,2.357-5.051,2.358Q-5132.228-324.824-5133.6-326.9Zm59.787,1.667-2.034-.285a19.688,19.688,0,0,0-2.563-.122,17.788,17.788,0,0,0-2.32.122l-2.36.325a1.053,1.053,0,0,0-.244.041h-.285q-1.83,0-1.831-1.424a1.336,1.336,0,0,1,.366-.955,1.186,1.186,0,0,1,.9-.386,6.1,6.1,0,0,1,1.1.122,3.345,3.345,0,0,0,.855.08q2.077,0,2.075-3.043v-16.275q0-3-2.059-3a7.291,7.291,0,0,0-.849.063,9.8,9.8,0,0,1-1.089.1q-1.294,0-1.293-1.341,0-1.424,1.788-1.424a5.158,5.158,0,0,1,.609.04l1.991.245a20.386,20.386,0,0,0,2.437.122q1.017,0,2.438-.122,3.331-.284,5.039-.285a21.3,21.3,0,0,1,4.468.407,6.963,6.963,0,0,1,4.206,2.521,7.433,7.433,0,0,1,1.523,4.717,6.96,6.96,0,0,1-2.625,5.854q-2.625,2.033-7.589,2.033h-4.559a1.105,1.105,0,0,0-.834.223,1.868,1.868,0,0,0-.183,1.033v.81a34.767,34.767,0,0,0,.306,6.235q.305,1.092,1.77,1.092a2.941,2.941,0,0,0,.854-.122c.6-.054.964-.08,1.1-.08a1.133,1.133,0,0,1,1.262,1.3q0,1.463-1.79,1.464Zm-2.644-23.948a5.055,5.055,0,0,0-.285,2.236v6.018q0,1.1,1.547,1.261h2.36a21.588,21.588,0,0,0,4.8-.447q3.62-.855,3.621-4.757,0-5.163-6.593-5.164Q-5075.889-350.031-5076.46-349.178Zm90.146,23.989a17.9,17.9,0,0,1-1.846-.143,17.882,17.882,0,0,0-1.845-.142q-1.623,0-2.555.082l-2.272.2q-1.663,0-1.662-1.424,0-1.259,1.561-1.259a3.429,3.429,0,0,1,.615.04l.617.122a3.453,3.453,0,0,0,.575.082q1.026,0,1.108-1.871v-2.074l-.122-9.229q-.122-2.4-1.22-2.4a4.445,4.445,0,0,0-.9.123,4.653,4.653,0,0,1-.9.122,1.169,1.169,0,0,1-1.342-1.3q0-1.422,1.75-1.422a10.9,10.9,0,0,1,1.222.1,10.6,10.6,0,0,0,1.219.1,8.57,8.57,0,0,0,1.059-.1,2.624,2.624,0,0,1,.773-.1q1.058,0,1.059,1.159v1.117a6.613,6.613,0,0,1,5.656-2.968,6.6,6.6,0,0,1,4.618,1.606,5.319,5.319,0,0,1,1.771,4.126,4.505,4.505,0,0,1-.9,2.907,2.875,2.875,0,0,1-2.36,1.119,2.323,2.323,0,0,1-1.587-.57,1.769,1.769,0,0,1-.65-1.382,1.626,1.626,0,0,1,.487-1.158,1.533,1.533,0,0,1,1.14-.509,2.486,2.486,0,0,1,.529.123,2.023,2.023,0,0,0,.245-.9A2.45,2.45,0,0,0-4981.5-343a4.065,4.065,0,0,0-2.584-.812,4.113,4.113,0,0,0-4.232,2.845,16.1,16.1,0,0,0-.652,5.287V-333q0,2.724.042,3.05.2,2.316,1.262,2.318a4.6,4.6,0,0,0,1.1-.14,3.464,3.464,0,0,1,.773-.1,1.143,1.143,0,0,1,1.3,1.281q0,1.4-1.664,1.4Zm-37.962-.163a20.849,20.849,0,0,0-2.189-.162,17.365,17.365,0,0,0-1.947.162,17.023,17.023,0,0,1-1.9.163h-.2q-1.7,0-1.7-1.464,0-1.259,1.4-1.261h.286a1.752,1.752,0,0,0,.371.057,10.358,10.358,0,0,0,1.192.228.854.854,0,0,0,.923-.632,17.462,17.462,0,0,0,.226-3.285l.042-2.857V-347.99a12.4,12.4,0,0,0-.123-1.632,1.134,1.134,0,0,0-1.139-.938q-.122,0-1.059.162a4.251,4.251,0,0,1-.732.082q-1.384,0-1.383-1.3,0-1.343,1.628-1.342a6.6,6.6,0,0,1,.772.04l.977.123a9.051,9.051,0,0,0,1.1.08,8.991,8.991,0,0,0,1.22-.122,9,9,0,0,1,1.221-.122q.935,0,.935,1.176a3.342,3.342,0,0,1-.04.609q-.286,3.127-.284,8.851V-329.7q.039,2.072,1.109,2.07a5.3,5.3,0,0,0,1.027-.2,5.075,5.075,0,0,1,.658-.082,1.211,1.211,0,0,1,1.356,1.382q0,1.343-1.664,1.342A20.363,20.363,0,0,1-5024.276-325.352Zm-13.389,0a20.885,20.885,0,0,0-2.189-.162,17.35,17.35,0,0,0-1.947.162,17.033,17.033,0,0,1-1.906.163h-.2q-1.7,0-1.7-1.464,0-1.259,1.4-1.261h.287a1.761,1.761,0,0,0,.37.057,10.44,10.44,0,0,0,1.192.228.854.854,0,0,0,.924-.632,17.507,17.507,0,0,0,.226-3.285l.04-2.857V-347.99a12.225,12.225,0,0,0-.122-1.632,1.135,1.135,0,0,0-1.139-.938q-.122,0-1.058.162a4.271,4.271,0,0,1-.732.082q-1.386,0-1.384-1.3,0-1.343,1.628-1.342a6.6,6.6,0,0,1,.772.04l.977.123a9.029,9.029,0,0,0,1.1.08,8.993,8.993,0,0,0,1.222-.122,8.956,8.956,0,0,1,1.22-.122q.935,0,.936,1.176a3.333,3.333,0,0,1-.041.609q-.286,3.127-.285,8.851V-329.7q.04,2.072,1.11,2.07a5.3,5.3,0,0,0,1.027-.2,5.085,5.085,0,0,1,.658-.082,1.211,1.211,0,0,1,1.356,1.382q0,1.343-1.664,1.342A20.373,20.373,0,0,1-5037.666-325.352Zm-62.275.041a24.4,24.4,0,0,0-2.767-.2,12.271,12.271,0,0,0-1.628.082q-1.71.243-2.116.244a1.8,1.8,0,0,1-1.222-.426,1.371,1.371,0,0,1-.487-1.078,1.134,1.134,0,0,1,.426-.9,1.488,1.488,0,0,1,1-.367,3.423,3.423,0,0,1,1.058.2,2.187,2.187,0,0,0,.693.122q1.22,0,1.26-2.643,0-.488.082-1.911v-3.945q0-4.147-.818-5.569a4.364,4.364,0,0,0-4.166-2.114,5.246,5.246,0,0,0-4.7,2.195,9.026,9.026,0,0,0-1.062,4.839v2.928a3.464,3.464,0,0,1-.163.814v.772q0,2.316.041,2.683.21,1.992,1.214,1.992a3.525,3.525,0,0,0,.942-.183,3.51,3.51,0,0,1,.9-.184,1.167,1.167,0,0,1,1.34,1.3q0,1.467-1.8,1.466c-.382,0-.957-.04-1.722-.122a26.123,26.123,0,0,0-2.664-.163q-.7,0-1.925.122-1.64.163-2.09.163-1.681,0-1.68-1.508,0-1.257,1.575-1.258a2.025,2.025,0,0,1,.787.114,4.868,4.868,0,0,0,1,.172q.662,0,.89-1.241a37.166,37.166,0,0,0,.27-5.061v-7.278a70.314,70.314,0,0,0-.244-7.706q-.245-1.605-1.14-1.606a4.492,4.492,0,0,0-.854.123,4.65,4.65,0,0,1-.9.122q-1.386,0-1.384-1.3a1.234,1.234,0,0,1,.488-.975,1.785,1.785,0,0,1,1.179-.407c.136,0,.6.04,1.385.123a15.932,15.932,0,0,0,1.668.08,6.9,6.9,0,0,0,1.017-.1,7.023,7.023,0,0,1,.937-.1q.935,0,.936,1.347v.083l-.163,7.922a10.993,10.993,0,0,1,2.979-2.135,7.9,7.9,0,0,1,3.184-.589,7.9,7.9,0,0,1,5.633,1.992,6.863,6.863,0,0,1,2.122,5.245v6.79q0,2.4.04,2.643.162,2.035,1.059,2.034a2.956,2.956,0,0,0,.936-.228,2.99,2.99,0,0,1,.651-.058q1.5,0,1.505,1.384t-1.954,1.382A14.006,14.006,0,0,1-5099.941-325.311Zm49.168-.061a15.868,15.868,0,0,0-1.981-.184,19.243,19.243,0,0,0-2.368.163,21.23,21.23,0,0,1-2.125.2q-1.635,0-1.632-1.381,0-1.343,1.4-1.342a5.555,5.555,0,0,1,.965.122,5.553,5.553,0,0,0,.965.122q.987,0,1.191-2.6v-10.409q-.207-2.563-1.231-2.562a4.293,4.293,0,0,0-.925.142,4.178,4.178,0,0,1-.882.143q-1.479,0-1.478-1.3,0-1.382,1.79-1.382a10.167,10.167,0,0,1,1.1.04q1.3.163,1.669.163a7.241,7.241,0,0,0,1-.1,7.42,7.42,0,0,1,1-.1q1.179,0,1.18,1.586c0,.109-.01.271-.033.488s-.032.38-.032.487q-.033.326-.066,2.521-.033,1.667-.032,3.415v5.286q0,2.035.041,2.4.2,1.831,1.1,1.831a6.245,6.245,0,0,0,1.017-.2,1.735,1.735,0,0,1,.611-.082q1.545,0,1.547,1.342a1.212,1.212,0,0,1-.512.975,2,2,0,0,1-1.285.405A15.9,15.9,0,0,1-5050.773-325.372Zm-4.261-23.095a2.2,2.2,0,0,1-.671-1.606,2.128,2.128,0,0,1,.671-1.586,2.227,2.227,0,0,1,1.608-.65,2.23,2.23,0,0,1,1.607.65,2.126,2.126,0,0,1,.671,1.586,2.194,2.194,0,0,1-.671,1.606,2.2,2.2,0,0,1-1.607.67A2.2,2.2,0,0,1-5055.034-348.466Z" transform="translate(5277.368 368.371)" fill="#58595b"/>
    <path id="Union_25" data-name="Union 25" d="M-5134.873-331.952a11.62,11.62,0,0,1,1.018-1.224,12.077,12.077,0,0,1,1.469,1.38,6.831,6.831,0,0,1-.979,1.184C-5133.893-331.115-5134.357-331.527-5134.873-331.952Zm81.341-1.34a11.562,11.562,0,0,1,1.02-1.224,12.193,12.193,0,0,1,1.469,1.38,6.807,6.807,0,0,1-.981,1.184C-5052.552-332.454-5053.016-332.866-5053.531-333.291Zm-96.955,0a11.62,11.62,0,0,1,1.018-1.224,12.048,12.048,0,0,1,1.469,1.38,6.761,6.761,0,0,1-.979,1.184C-5149.506-332.454-5149.97-332.866-5150.486-333.291Zm99.443-.167a11.868,11.868,0,0,1,1.018-1.224,11.969,11.969,0,0,1,1.469,1.378,6.817,6.817,0,0,1-.979,1.185C-5050.063-332.621-5050.527-333.033-5051.042-333.458Zm-96.956,0a11.746,11.746,0,0,1,1.02-1.224,12.183,12.183,0,0,1,1.469,1.378,6.817,6.817,0,0,1-.979,1.185C-5147.019-332.621-5147.483-333.033-5148-333.458Zm75.6-.773a3.979,3.979,0,0,1,.89-2.165,5.684,5.684,0,0,1,4.409-2.525c1.161,0,3.275.18,4.977.18h8.64c.994,0,2.025-.4,2.217-1.134l.374-1.391.89-.644.078.091a6.842,6.842,0,0,0-.284,1.494,1.281,1.281,0,0,0,.425,1.07,2.408,2.408,0,0,0,1.6.514h.451a8.349,8.349,0,0,0,2.541-.245c.451-.167.734-.348.734-.566a10.694,10.694,0,0,0-1.289-3.182,10.144,10.144,0,0,1,.968-1.456h.063a9.076,9.076,0,0,1,1.289,3.928,3.855,3.855,0,0,1-.9,2.4c-.579.58-1.5.773-3.468.773h-.451c-1.263,0-2.218-.349-2.656-1.315h-.052a2.772,2.772,0,0,1-2.565,1.315h-8.77c-1.869,0-4.06-.167-5.091-.167a5.083,5.083,0,0,0-2.876.773c-.669.464-1.1.889-1.1,1.249,0,.979,1.882,1.43,4.6,1.43,1.211,0,2.422-.039,3.634-.078,1.174-.039,2.334-.063,3.508-.063l.038.115a9.279,9.279,0,0,1-1.211,1.4c-1.444,0-2.8.038-4.074.076-.968.026-1.882.066-2.747.066C-5069.932-332.286-5072.4-332.454-5072.4-334.232Zm-89.6-2.28a6.846,6.846,0,0,1,1.109-3.749l.49.271a5.977,5.977,0,0,0-.722,2.41,2.833,2.833,0,0,0,.864,2.241,3.776,3.776,0,0,0,2.437.863,5.61,5.61,0,0,0,3.12-1.121c.567-.438.942-.824.942-1.327a6.117,6.117,0,0,0-.464-2.139,20.987,20.987,0,0,0-1.018-2.1,10.792,10.792,0,0,1,.875-1.364h.1a16.994,16.994,0,0,1,1.044,2.472c.375,1.134,1.069,1.315,2.32,1.315h.464c.993,0,2.024-.4,2.218-1.134l.373-1.391.891-.644.077.091a6.9,6.9,0,0,0-.284,1.494,1.278,1.278,0,0,0,.426,1.07,2.4,2.4,0,0,0,1.6.514h.49a3.311,3.311,0,0,0,1.5-.4c.387-.219.619-.632.619-1.547,0-2.588-.143-4.907-.337-7.87l-.039-.644,1.149-1.159.063.026c.245,3.028.258,6.183.258,10.124,0,.593.413,1.469,1.908,1.469h.954a13.335,13.335,0,0,0,6.885-2.332l.013-.052a12.15,12.15,0,0,0-4.048-.9,2.065,2.065,0,0,0-1.638.645l.156.644-.389,1.159h-.127l-.632-1.7a2.553,2.553,0,0,1,2.8-2.319,12.444,12.444,0,0,1,4.23,1.122,6.416,6.416,0,0,0,2.2.412l1.045-.013.039.025-.684,1.353a4,4,0,0,0-2.231.477l-2.152,1.4a10.081,10.081,0,0,1-5.583,1.726h-.94a2.472,2.472,0,0,1-2.515-1.365h-.052a2.725,2.725,0,0,1-2.489,1.365h-.516c-1.263,0-2.218-.349-2.656-1.315h-.052a2.774,2.774,0,0,1-2.566,1.315h-.516a2.769,2.769,0,0,1-1.842-.579h-.04a6.336,6.336,0,0,1-.8,2.976,6.174,6.174,0,0,1-4.371,2.087A3.713,3.713,0,0,1-5162-336.512Zm43.489,3.3a3.985,3.985,0,0,1-1.752-3.31v-.516a4.22,4.22,0,0,0-2.733,1.147l-.206-.128a8.794,8.794,0,0,1,1.07-1.714,3.1,3.1,0,0,1,2.037-.876c.208-.9.426-1.933.7-2.872a11.353,11.353,0,0,1,1.47-3.311l.117-.039a6.485,6.485,0,0,0,.477.773c.954,1.353,1.689,2.538,1.689,3.62a5.559,5.559,0,0,1-.245,1.7h2.732a8.349,8.349,0,0,0,2.541-.245c.451-.167.734-.348.734-.566a10.677,10.677,0,0,0-1.29-3.182,10.1,10.1,0,0,1,.968-1.456h.064a9.076,9.076,0,0,1,1.289,3.928,3.86,3.86,0,0,1-.9,2.4c-.579.58-1.5.772-3.467.772h-.49a4.411,4.411,0,0,1-1.083-.128l-.065.026a3.462,3.462,0,0,1,.529,1.739,3.037,3.037,0,0,1-.413,1.547,2.426,2.426,0,0,1-1.933,1.21A3.477,3.477,0,0,1-5118.511-333.215Zm-.992-3.915a3.2,3.2,0,0,0,.813,1.789,3.457,3.457,0,0,0,2.461,1.289c.491,0,.749-.271.749-.632a2.6,2.6,0,0,0-.5-1.544,2.358,2.358,0,0,0-2.062-1.005A11.012,11.012,0,0,0-5119.5-337.13Zm.128-1.534a10.9,10.9,0,0,0,2.025-.258c.618-.167.851-.412.851-.657,0-.824-.773-1.945-1.6-3.1h-.065C-5118.6-341.407-5119.013-340.016-5119.375-338.663Zm-17.3,4.148a11.581,11.581,0,0,1,1.017-1.223,11.97,11.97,0,0,1,1.47,1.378,6.761,6.761,0,0,1-.979,1.184C-5135.7-333.677-5136.162-334.09-5136.677-334.515Zm2.487-.167a11.742,11.742,0,0,1,1.02-1.224,12.247,12.247,0,0,1,1.469,1.378,6.857,6.857,0,0,1-.979,1.185C-5133.21-333.845-5133.674-334.257-5134.19-334.682Zm94.93-2.189a16.872,16.872,0,0,0,.143-2.577v-1.263c0-2.358-.258-5.783-.465-8.011a11.9,11.9,0,0,1,1.263-1.367l.117.04c.271,2.807.334,6.067.334,9.068a20.376,20.376,0,0,1-.089,2.125,3.342,3.342,0,0,1-1.134,2.074Zm-37.247,0a2.066,2.066,0,0,1-1.817-2.1c0-1.521,1.393-2.358,2.644-2.706l.206.58c-.968.386-1.521.9-1.521,1.61a1.4,1.4,0,0,0,1.25,1.3c.091,0,.232.167.232.5a.9.9,0,0,1-.968.812Zm-16.424-1.315h-.052a3.453,3.453,0,0,1-2.747,1.1h-5.906a2.847,2.847,0,0,1-2.205-.733c-.787-.8-.8-1.714-.8-3.608,0-2.447-.141-5.01-.335-7.741a11.653,11.653,0,0,1,1.212-1.2l.089.051c.206,2.822.206,6.159.206,9.328v.733a1.346,1.346,0,0,0,.968,1.378,2.583,2.583,0,0,0,.825.141h6.165a3.064,3.064,0,0,0,2.721-1.2l.708-1.017.993-.348.052.065a4.815,4.815,0,0,0-.877,1.854.616.616,0,0,0,.671.645,2.065,2.065,0,0,0,1.146-.373c.452-.336.516-.71.916-2.049l.773-.45.078.051a5.662,5.662,0,0,0-.168,1.263,1.39,1.39,0,0,0,1.342,1.481.605.605,0,0,0,.683-.579,11.678,11.678,0,0,0-.323-2.087,9.916,9.916,0,0,1,1.161-1.159l.078.039a15.067,15.067,0,0,1,.206,2.293,4.341,4.341,0,0,1-.465,1.764,2.474,2.474,0,0,1-1.907,1.417,2.173,2.173,0,0,1-1.612-1.07h-.1a3.015,3.015,0,0,1-2.257,1.109A1.107,1.107,0,0,1-5092.931-338.187Zm45.511-6.968.31-.54a1.592,1.592,0,0,1,.593-.426v-.038a1.208,1.208,0,0,1-1.005-1.122,1.747,1.747,0,0,1,.606-1.134,2.45,2.45,0,0,1,1.56-.733c.515,0,.813.3.813.631a1.335,1.335,0,0,1-.412.837h-.027c-.143-.282-.271-.464-.414-.5a1.657,1.657,0,0,0-.4-.038c-.452,0-.9.258-.9.451,0,.618,1.083.824,1.844.824.438,0,.877-.026,1.315-.052v.039a6.292,6.292,0,0,1-.5.876,13.291,13.291,0,0,0-3.353.966Zm-66.28-1.481a11.389,11.389,0,0,1,1.018-1.224,12.183,12.183,0,0,1,1.469,1.378,6.8,6.8,0,0,1-.981,1.185C-5112.721-345.8-5113.186-346.211-5113.7-346.636Zm2.487-.168a11.721,11.721,0,0,1,1.018-1.223,12.043,12.043,0,0,1,1.47,1.378,6.864,6.864,0,0,1-.98,1.185C-5110.232-345.966-5110.7-346.379-5111.213-346.8Zm69.8-3.774-.439-.786c0-.6.259-1.43,1.174-1.43.89,0,1.819.387,2.8.387a2.825,2.825,0,0,0,1.057-.18,2.982,2.982,0,0,0,.722-.413l.064.065a7.608,7.608,0,0,1-.374.966,2.693,2.693,0,0,1-1.8.618c-.812,0-1.741-.219-2.385-.219-.206,0-.438.464-.723.992Z" transform="translate(5307.208 423.615)" fill="#b5a55d"/>
  </g>
</svg>
